# xmcd CD database file
#
# Track frame offsets:
#	150
#	12254
#	36791
#	46245
#	59659
#	73206
#	91439
#	107298
#	129679
#	145353
#	157902
#	180203
#	196997
#	209407
#	224446
#	251590
#	262959
#	279804
#	296396
#
# Disc length: 4291 seconds
#
# Revision: 0
# Processed by: cddbd v1.5.2PL0 Copyright (c) Steve Scherf et al.
# Submitted via: CDex 1.51
#
DISCID=1510c113
DTITLE=Delta Boys - Front Porch Stories
DYEAR=2010
DGENRE=Blues
TTITLE0=29 ways
TTITLE1=Circumstances
TTITLE2=Big fat mamas
TTITLE3=Coffee!
TTITLE4=In the dark
TTITLE5=I don't wanna know
TTITLE6=Memos's swing
TTITLE7=Bad blues
TTITLE8=I wonder why
TTITLE9=Going down the road
TTITLE10=I can see clearly now
TTITLE11=Voodoo music
TTITLE12=Nobody knows me
TTITLE13=Singing waterfall
TTITLE14=Dark and stormy night
TTITLE15=Corina
TTITLE16=Smile and walk
TTITLE17=Tennessee waltz
TTITLE18=Ease my pain
EXTD=YEAR: 2010
EXTT0=
EXTT1=
EXTT2=
EXTT3=
EXTT4=
EXTT5=
EXTT6=
EXTT7=
EXTT8=
EXTT9=
EXTT10=
EXTT11=
EXTT12=
EXTT13=
EXTT14=
EXTT15=
EXTT16=
EXTT17=
EXTT18=
PLAYORDER=
